+8_ID_stride2.mot
nRows=15
nColumns=38

name +8_ID_stride2.mot
datacolumns 38
datarows 15
range 0.7650000000 0.8350000000
endheader
time	pelvis_tilt_moment	pelvis_list_moment	pelvis_rotation_moment	pelvis_tx_force	pelvis_ty_force	pelvis_tz_force	hip_flexion_r_moment	hip_adduction_r_moment	hip_rotation_r_moment	knee_angle_r_moment	ankle_angle_r_moment	subtalar_angle_r_moment	mtp_angle_r_moment	hip_flexion_l_moment	hip_adduction_l_moment	hip_rotation_l_moment	knee_angle_l_moment	ankle_angle_l_moment	subtalar_angle_l_moment	mtp_angle_l_moment	lumbar_extension_moment	lumbar_bending_moment	lumbar_rotation_moment	arm_flex_r_moment	arm_add_r_moment	arm_rot_r_moment	elbow_flex_r_moment	pro_sup_r_moment	wrist_flex_r_moment	wrist_dev_r_moment	arm_flex_l_moment	arm_add_l_moment	arm_rot_l_moment	elbow_flex_l_moment	pro_sup_l_moment	wrist_flex_l_moment	wrist_dev_l_moment
        0.7650000000	      -10.6109422793	      -11.3364415099	       -2.1625975797	       36.4452664182	      -25.2057515805	      -57.9749059960	       -2.4953202272	      -47.7841715134	       22.3190776467	       12.0917724983	     -195.9544869332	       43.6506897521	       -0.0213043513	      -10.2630862524	        3.7277639564	       -0.3384801257	       -2.6268886568	        2.3615684086	       -0.2847990772	        0.1412836324	       24.2643611247	        8.8730062859	      -35.2068939713	        0.1068523627	       -2.2261744599	       -3.2840940800	        4.8262339688	       -0.2078247940	       -0.2724739987	       -0.4814714289	        7.0120320581	        5.6218795960	        3.9654506918	        5.2039963549	        0.0163257763	        0.5197399749	       -0.3410026601	
        0.7700000000	       -5.5631483156	      -19.9566131999	        2.3485235981	       69.7168157338	      -45.6518134138	      -30.6938909333	       -8.7331823111	      -52.3312071925	       25.1298294008	        3.7132486941	     -185.4246413500	       40.9225011827	       -0.0275753525	      -11.9869542298	        2.5777155507	       -0.1555717558	       -2.5479500917	        2.4675131466	       -0.3432285407	        0.1453679916	       21.1376716498	       12.1045154300	      -35.9125234639	       -0.4007594498	       -2.6440443337	       -3.4705557966	        4.3093458161	       -0.2033087170	       -0.2993625790	       -0.4417100687	        6.7069383741	        5.6986530473	        4.0737163913	        4.7519967008	        0.0296376638	        0.5219596567	       -0.2989181614	
        0.7750000000	       -3.5859862532	      -28.7587555332	        4.6723931052	       94.4225949248	      -55.8497817862	      -11.3580370068	      -13.0319453390	      -52.4691385135	       24.9852884030	       -3.8838890224	     -174.1606787456	       37.9239216463	       -0.0340911469	      -13.4574294761	        1.1047589120	        0.1333814638	       -2.7397905205	        2.5913499794	       -0.4165942267	        0.1506524731	       17.0674878891	       14.4523268309	      -35.6334440006	       -0.7788397208	       -2.8766633416	       -3.4994790710	        3.8073566119	       -0.1957512487	       -0.3132676707	       -0.4000314316	        6.3817359531	        5.5799462150	        4.0301907979	        4.3124099801	        0.0390386405	        0.5106299751	       -0.2602654434	
        0.7800000000	       -3.9776488923	      -31.2272431145	        4.5772447596	      103.3287510493	      -57.0620533584	       -6.9752205110	      -13.2283024211	      -50.8650650966	       23.5889561570	       -8.7734961840	     -162.4487684898	       34.9369058202	       -0.0404653596	      -14.9111704623	       -0.3455535379	        0.4481874189	       -3.1749192481	        2.7181905281	       -0.4949132144	        0.1564416954	       12.5620237059	       15.8270116715	      -34.9328636415	       -1.0488099463	       -2.9158944019	       -3.4761558427	        3.3268745151	       -0.1855723672	       -0.3155360258	       -0.3577158138	        6.0567916107	        5.3179569001	        3.9114248637	        3.8966330095	        0.0443976917	        0.4887488238	       -0.2259685493	
        0.7850000000	       -8.5597000998	      -29.9894682000	        0.3359439403	      104.1840513330	      -49.3352047794	      -11.5499333164	       -7.0221634877	      -41.0340495183	       17.2075975592	      -11.0722701784	     -150.2553465296	       32.1071327355	       -0.0462617937	      -16.4596533912	       -1.2560548082	        0.6574694551	       -3.9915310948	        2.8361499480	       -0.5683959193	        0.1621755785	        8.0661851383	       16.3231299032	      -33.5409853002	       -1.2384242569	       -2.7897406552	       -3.2892259119	        2.8710360330	       -0.1727911591	       -0.3081825067	       -0.3153753805	        5.7417440913	        4.8478906674	        3.6441414389	        3.5106962954	        0.0462903411	        0.4561730883	       -0.1965485890	
        0.7900000000	      -12.3865814983	      -23.7920220400	       -5.5459880816	       94.4899678941	      -37.4163601148	      -22.7120618277	        2.1420737145	      -29.9344820565	       10.2267055331	      -11.9223180724	     -137.2875887647	       29.4909343855	       -0.0507276594	      -18.1675498852	       -1.3886238845	        0.6873214291	       -5.1062945197	        2.9319496724	       -0.6217811581	        0.1671609373	        4.3591929670	       16.2652848165	      -31.9425717230	       -1.4017429920	       -2.4808874585	       -3.0203696104	        2.4296079417	       -0.1581243608	       -0.2916354276	       -0.2732690728	        5.4284626160	        4.2328753767	        3.2989155531	        3.1467316827	        0.0461757750	        0.4173306810	       -0.1710285672	
        0.7950000000	      -11.1801078677	      -17.4818497240	      -10.2742498655	       82.3123312095	      -27.8873925754	      -30.7426307841	       10.1570943472	      -21.4913536928	        5.2544739287	      -12.8201397168	     -123.0671213854	       26.8413067534	       -0.0525923812	      -19.9684740405	       -0.0394804426	        0.3717937932	       -6.4742727158	        2.9957188085	       -0.6404107274	        0.1708607379	        1.9266518874	       15.7389906337	      -30.3260334361	       -1.5901682756	       -2.0608810986	       -2.6931239070	        1.9885624494	       -0.1420018835	       -0.2704628929	       -0.2311849081	        5.1065656258	        3.5055608331	        2.9017544241	        2.7907776223	        0.0447350476	        0.3749038840	       -0.1479668292	
        0.8000000000	       -4.8910584978	      -10.4094105706	      -11.0501108248	       70.2561741116	      -29.1497179275	      -33.9600467144	       15.9067210223	      -18.7655596227	        5.1958890764	      -14.3471756843	     -107.8883076621	       23.7955795663	       -0.0505415758	      -20.9809222967	        2.6715683605	       -0.2491967841	       -7.8689327795	        3.0410757879	       -0.6229261546	        0.1731851092	        1.2478935818	       14.9792190761	      -28.8211516768	       -1.8272284623	       -1.5711238446	       -2.3342644272	        1.5339055427	       -0.1248073257	       -0.2471469486	       -0.1886459542	        4.7695262166	        2.7065969639	        2.4792442056	        2.4259389377	        0.0430647822	        0.3310872025	       -0.1255428204	
        0.8050000000	        5.7010639759	       -0.3520452119	      -10.2029432682	       58.0369812071	      -39.7756775078	      -36.2578561321	       21.8217337092	      -18.8339410462	        6.8699938892	      -15.6412152063	      -92.7478375381	       20.2524801204	       -0.0434069531	      -21.6809945096	        6.6094072822	       -1.0818818884	       -9.4045408433	        3.0403360092	       -0.5703484524	        0.1729612971	        1.5384721555	       14.1258844660	      -27.4387030039	       -2.1201011036	       -1.0584949079	       -1.9667493872	        1.0504162970	       -0.1066677759	       -0.2237835516	       -0.1445992168	        4.4006002235	        1.8781539372	        2.0533810263	        2.0313297400	        0.0426747176	        0.2871497730	       -0.1015828535	
        0.8100000000	       16.2369140008	       14.2213188073	       -8.2537458324	       44.8979955682	      -68.5440752984	      -39.0208946293	       29.2814851517	      -19.6278782984	        9.6501597932	      -16.3230765573	      -78.1746264092	       16.5134008335	       -0.0290213917	      -22.3500730208	       11.3379156530	       -1.9703467833	      -11.1666306594	        3.0034103355	       -0.4821277932	        0.1703479733	        2.8811413294	       13.2678686774	      -26.1039337998	       -2.4634618070	       -0.5577476026	       -1.6030028958	        0.5339385416	       -0.0877045808	       -0.2012074341	       -0.0984499473	        3.9847128433	        1.0531719043	        1.6365575071	        1.5977653308	        0.0426346555	        0.2435147617	       -0.0748929171	
        0.8150000000	       22.2620366737	       35.7012310284	       -9.1463448747	       28.7401701535	     -110.3284352485	      -46.8511884576	       41.5128197973	      -15.8140603351	        9.2856185684	      -14.6734980111	      -64.7679537869	       13.2427333848	       -0.0067074148	      -23.4098456389	       16.1522583668	       -2.7171361718	      -13.3301450367	        2.9030424284	       -0.3759655041	        0.1639642062	        4.4608671398	       12.4960525307	      -24.6732411308	       -2.8520046443	       -0.1104713597	       -1.2552837568	       -0.0268049733	       -0.0677807324	       -0.1801428476	       -0.0486946777	        3.4768878732	        0.2721775837	        1.2434015059	        1.1043056928	        0.0443413884	        0.2003745941	       -0.0430448993	
        0.8200000000	       21.1260512572	       60.3394858097	      -12.7828169186	       10.3617056490	     -159.7050230419	      -56.7535763421	       56.6871536118	       -7.0137835948	        6.1582122257	      -11.2534899557	      -52.3237706676	       11.2586936218	        0.0237906906	      -25.4250368317	       20.3819509613	       -3.1564132004	      -16.1022076821	        2.7404154719	       -0.2642846271	        0.1539677597	        5.7963209222	       11.8621801291	      -22.9584937253	       -3.2783901254	        0.2549351415	       -0.9254484865	       -0.6218168535	       -0.0469591288	       -0.1599597747	        0.0048664502	        2.8332191984	       -0.4304832827	        0.8836295044	        0.5526532275	        0.0473049447	        0.1577579819	       -0.0054567562	
        0.8250000000	       16.1693373133	       79.6608683608	      -17.8157111137	       -7.7887297554	     -208.3214734535	      -57.9693952783	       69.9532826845	        4.5456398111	        1.1639656604	       -7.9368451053	      -41.2248965975	       10.2857840552	        0.0620200714	      -29.1582578109	       23.5172858003	       -3.1837161807	      -19.7618122205	        2.5085076554	       -0.1585790897	        0.1404164138	        6.1167961891	       11.3637286334	      -20.8262051309	       -3.7295775807	        0.5233871453	       -0.6126573456	       -1.2219009646	       -0.0256980873	       -0.1396000629	        0.0607997345	        2.0239629049	       -1.0244932513	        0.5662550722	       -0.0358927455	        0.0510049657	        0.1162506944	        0.0368784347	
        0.8300000000	        8.3525164589	       84.3426445360	      -19.4984716793	      -23.0681636289	     -239.4742659565	      -51.2400000609	       75.1424028939	       14.2646430455	       -1.5691939943	       -7.0709470736	      -31.6304149288	        9.3655565567	        0.1067824224	      -35.9191179058	       25.1550175555	       -2.9645990332	      -24.7856162508	        2.1931620655	       -0.0661915830	        0.1235459339	        5.9173230183	       10.9303801695	      -18.1960596397	       -4.1816791211	        0.6939663530	       -0.3159525312	       -1.7797175831	       -0.0048826902	       -0.1179330202	        0.1159986045	        1.0427892839	       -1.4854958579	        0.2992620116	       -0.6199977383	        0.0545547322	        0.0769821844	        0.0812292908	
        0.8350000000	        1.0076540088	       75.9510714480	      -18.1117879726	      -34.1851112905	     -247.9100963155	      -28.7461434017	       75.5853135651	       19.5623590198	       -1.9495575425	       -7.5273384712	      -22.7899723519	        7.4736374489	        0.1558719650	      -46.6516769396	       25.5805595340	       -2.4142919238	      -31.4622906709	        1.7973347041	        0.0042015566	        0.1042431115	        4.3307524285	       10.4361082473	      -15.0784724308	       -4.5929832175	        0.7627122362	       -0.0380633754	       -2.2253455221	        0.0140460545	       -0.0940396220	        0.1654094729	       -0.0788745704	       -1.7779526107	        0.0932573717	       -1.1366739766	        0.0563886679	        0.0418622351	        0.1230316999	
